<svg width="35" height="33" viewBox="0 0 35 33" fill="none" xmlns="http://www.w3.org/2000/svg">
<g clip-path="url(#clip0_64_4455)">
<path d="M33.3787 29.8398H1.58985C0.711563 29.8398 0 30.5055 0 31.328C0 32.149 0.711563 32.8148 1.58985 32.8148H33.378C34.2562 32.8148 34.9678 32.149 34.9678 31.328C34.9671 30.5055 34.2555 29.8398 33.3787 29.8398Z" fill="#0E3B76"/>
<path d="M3.57642 25.9726C2.69814 25.9726 1.98657 26.6383 1.98657 27.4601C1.98657 28.2818 2.69814 28.9483 3.57642 28.9483H31.3914C32.2697 28.9483 32.9812 28.2818 32.9812 27.4601C32.9812 26.6383 32.2697 25.9726 31.3914 25.9726H30.9947V12.5878H31.3914C31.8313 12.5878 32.1856 12.2549 32.1856 11.8447C32.1856 11.4346 31.8298 11.1017 31.3914 11.1017H3.57642C3.13728 11.1017 2.78224 11.4346 2.78224 11.8447C2.78224 12.2549 3.13802 12.5878 3.57642 12.5878H3.97389V25.9719H3.57642V25.9726ZM27.815 12.5878V25.9719H23.0469V12.5878H27.815ZM19.8672 12.5878V25.9719H15.0991V12.5878H19.8672ZM7.1521 12.5878H11.9202V25.9719H7.1521V12.5878Z" fill="#0E3B76"/>
<path d="M1.58988 9.76449H33.378C33.3832 9.76449 33.3892 9.76449 33.3936 9.76449C34.2727 9.76449 34.9835 9.09873 34.9835 8.27698C34.9835 7.62376 34.5339 7.07012 33.9094 6.86956L18.1374 0.229391C17.7229 0.055291 17.2487 0.055291 16.8334 0.229391L0.937864 6.92109C0.253841 7.2094 -0.122037 7.9044 0.0357572 8.58966C0.192807 9.27492 0.840359 9.76449 1.58988 9.76449Z" fill="#0E3B76"/>
</g>
<defs>
<clipPath id="clip0_64_4455">
<rect y="0.0910034" width="34.9834" height="32.7314" rx="6.10686" fill="white"/>
</clipPath>
</defs>
</svg>
